<?xml version="1.0" encoding="UTF-8"?>
<svg xmlns="http://www.w3.org/2000/svg" xmlns:xlink="http://www.w3.org/1999/xlink" width="612pt" height="792pt" viewBox="0 0 612 792" version="1.1">
<g id="surface1">
<path style=" stroke:none;fill-rule:evenodd;fill:rgb(0%,0%,0%);fill-opacity:1;" d="M 270.039063 418.214844 C 264.976563 421.949219 257.640625 423.9375 251.320313 423.9375 C 242.46875 423.9375 234.492188 420.660156 228.460938 415.214844 C 227.984375 414.785156 228.40625 414.203125 228.976563 414.53125 C 235.488281 418.320313 243.539063 420.601563 251.855469 420.601563 C 257.464844 420.601563 263.628906 419.4375 269.300781 417.03125 C 270.15625 416.667969 270.875 417.597656 270.039063 418.214844 "/>
<path style=" stroke:none;fill-rule:evenodd;fill:rgb(0%,0%,0%);fill-opacity:1;" d="M 272.144531 415.808594 C 271.496094 414.980469 267.863281 415.417969 266.234375 415.613281 C 265.738281 415.671875 265.664063 415.238281 266.109375 414.925781 C 269.003906 412.894531 273.753906 413.480469 274.304688 414.160156 C 274.859375 414.847656 274.15625 419.609375 271.441406 421.878906 C 271.027344 422.226563 270.628906 422.042969 270.8125 421.582031 C 271.425781 420.054688 272.792969 416.640625 272.144531 415.808594 "/>
<path style=" stroke:none;fill-rule:evenodd;fill:rgb(0%,0%,0%);fill-opacity:1;" d="M 266.347656 400.554688 L 266.347656 398.578125 C 266.351563 398.273438 266.578125 398.074219 266.851563 398.074219 L 275.710938 398.074219 C 275.996094 398.074219 276.222656 398.28125 276.222656 398.574219 L 276.222656 400.269531 C 276.21875 400.554688 275.980469 400.925781 275.554688 401.515625 L 270.964844 408.066406 C 272.667969 408.027344 274.472656 408.28125 276.019531 409.152344 C 276.367188 409.351563 276.460938 409.640625 276.488281 409.925781 L 276.488281 412.035156 C 276.488281 412.324219 276.171875 412.660156 275.835938 412.488281 C 273.109375 411.058594 269.488281 410.902344 266.472656 412.503906 C 266.164063 412.667969 265.84375 412.335938 265.84375 412.046875 L 265.84375 410.039063 C 265.84375 409.71875 265.851563 409.171875 266.171875 408.679688 L 271.492188 401.050781 L 266.859375 401.050781 C 266.578125 401.050781 266.351563 400.851563 266.347656 400.554688 "/>
<path style=" stroke:none;fill-rule:evenodd;fill:rgb(0%,0%,0%);fill-opacity:1;" d="M 234.023438 412.902344 L 231.328125 412.902344 C 231.070313 412.886719 230.867188 412.691406 230.847656 412.445313 L 230.847656 398.609375 C 230.847656 398.332031 231.082031 398.113281 231.367188 398.113281 L 233.878906 398.113281 C 234.140625 398.125 234.351563 398.324219 234.371094 398.578125 L 234.371094 400.382813 L 234.421875 400.382813 C 235.074219 398.636719 236.308594 397.820313 237.96875 397.820313 C 239.652344 397.820313 240.710938 398.636719 241.464844 400.382813 C 242.121094 398.636719 243.605469 397.820313 245.191406 397.820313 C 246.324219 397.820313 247.554688 398.285156 248.3125 399.335938 C 249.164063 400.5 248.992188 402.1875 248.992188 403.671875 L 248.988281 412.402344 C 248.988281 412.679688 248.757813 412.902344 248.46875 412.902344 L 245.777344 412.902344 C 245.503906 412.886719 245.292969 412.671875 245.292969 412.40625 L 245.289063 405.070313 C 245.289063 404.488281 245.34375 403.03125 245.214844 402.480469 C 245.015625 401.546875 244.410156 401.285156 243.632813 401.285156 C 242.976563 401.285156 242.296875 401.722656 242.019531 402.421875 C 241.742188 403.121094 241.769531 404.28125 241.769531 405.070313 L 241.769531 412.402344 C 241.769531 412.679688 241.535156 412.902344 241.246094 412.902344 L 238.554688 412.902344 C 238.285156 412.886719 238.070313 412.671875 238.070313 412.40625 L 238.070313 405.070313 C 238.070313 403.527344 238.320313 401.257813 236.40625 401.257813 C 234.46875 401.257813 234.546875 403.46875 234.546875 405.070313 L 234.546875 412.402344 C 234.546875 412.679688 234.3125 412.902344 234.023438 412.902344 "/>
<path style=" stroke:none;fill-rule:evenodd;fill:rgb(0%,0%,0%);fill-opacity:1;" d="M 283.875 400.644531 C 281.886719 400.644531 281.761719 403.351563 281.761719 405.039063 C 281.761719 406.730469 281.738281 410.339844 283.851563 410.339844 C 285.941406 410.339844 286.039063 407.429688 286.039063 405.652344 C 286.039063 404.488281 285.988281 403.089844 285.636719 401.984375 C 285.335938 401.023438 284.730469 400.644531 283.875 400.644531 Z M 283.851563 397.820313 C 287.851563 397.820313 290.015625 401.257813 290.015625 405.621094 C 290.015625 409.84375 287.625 413.195313 283.851563 413.195313 C 279.925781 413.195313 277.785156 409.757813 277.785156 405.476563 C 277.785156 401.167969 279.949219 397.820313 283.851563 397.820313 "/>
<path style=" stroke:none;fill-rule:evenodd;fill:rgb(0%,0%,0%);fill-opacity:1;" d="M 295.203125 412.902344 L 292.519531 412.902344 C 292.25 412.886719 292.035156 412.671875 292.035156 412.40625 L 292.03125 398.5625 C 292.054688 398.308594 292.277344 398.113281 292.550781 398.113281 L 295.050781 398.113281 C 295.285156 398.125 295.480469 398.285156 295.527344 398.5 L 295.527344 400.613281 L 295.578125 400.613281 C 296.335938 398.722656 297.390625 397.820313 299.253906 397.820313 C 300.460938 397.820313 301.644531 398.257813 302.398438 399.449219 C 303.101563 400.558594 303.101563 402.421875 303.101563 403.761719 L 303.101563 412.46875 C 303.074219 412.710938 302.851563 412.902344 302.585938 412.902344 L 299.882813 412.902344 C 299.636719 412.886719 299.433594 412.703125 299.40625 412.46875 L 299.40625 404.953125 C 299.40625 403.441406 299.582031 401.226563 297.71875 401.226563 C 297.0625 401.226563 296.460938 401.664063 296.15625 402.332031 C 295.78125 403.179688 295.730469 404.019531 295.730469 404.953125 L 295.730469 412.402344 C 295.726563 412.679688 295.492188 412.902344 295.203125 412.902344 "/>
<path style=" stroke:none;fill-rule:evenodd;fill:rgb(0%,0%,0%);fill-opacity:1;" d="M 262.003906 412.867188 C 261.824219 413.027344 261.566406 413.039063 261.367188 412.929688 C 260.46875 412.1875 260.308594 411.84375 259.820313 411.132813 C 258.339844 412.640625 257.292969 413.09375 255.375 413.09375 C 253.105469 413.09375 251.339844 411.691406 251.339844 408.890625 C 251.339844 406.703125 252.527344 405.214844 254.214844 404.484375 C 255.679688 403.84375 257.722656 403.726563 259.285156 403.550781 L 259.285156 403.203125 C 259.285156 402.558594 259.335938 401.800781 258.957031 401.246094 C 258.628906 400.75 258 400.546875 257.445313 400.546875 C 256.414063 400.546875 255.503906 401.074219 255.277344 402.164063 C 255.230469 402.40625 255.054688 402.648438 254.808594 402.660156 L 252.195313 402.378906 C 251.976563 402.328125 251.730469 402.152344 251.792969 401.8125 C 252.386719 398.6875 255.179688 397.714844 257.714844 397.6875 L 257.914063 397.6875 C 259.214844 397.703125 260.871094 398.058594 261.882813 399.027344 C 263.195313 400.253906 263.066406 401.886719 263.066406 403.667969 L 263.066406 407.867188 C 263.066406 409.132813 263.59375 409.6875 264.085938 410.367188 C 264.257813 410.613281 264.296875 410.902344 264.074219 411.082031 C 263.527344 411.546875 262.546875 412.394531 262.007813 412.871094 Z M 259.285156 406.296875 C 259.285156 407.34375 259.308594 408.21875 258.78125 409.152344 C 258.351563 409.914063 257.671875 410.378906 256.914063 410.378906 C 255.878906 410.378906 255.273438 409.59375 255.273438 408.425781 C 255.273438 406.128906 257.335938 405.710938 259.285156 405.710938 L 259.285156 406.296875 "/>
<path style=" stroke:none;fill-rule:evenodd;fill:rgb(0%,0%,0%);fill-opacity:1;" d="M 226.660156 412.867188 C 226.484375 413.027344 226.226563 413.039063 226.023438 412.929688 C 225.128906 412.1875 224.96875 411.84375 224.480469 411.132813 C 223 412.640625 221.953125 413.09375 220.035156 413.09375 C 217.765625 413.09375 216 411.691406 216 408.890625 C 216 406.703125 217.183594 405.214844 218.875 404.484375 C 220.339844 403.84375 222.382813 403.726563 223.945313 403.550781 L 223.945313 403.203125 C 223.945313 402.558594 223.996094 401.800781 223.617188 401.246094 C 223.289063 400.75 222.65625 400.546875 222.101563 400.546875 C 221.074219 400.546875 220.160156 401.074219 219.9375 402.164063 C 219.890625 402.40625 219.710938 402.648438 219.46875 402.660156 L 216.855469 402.378906 C 216.632813 402.328125 216.390625 402.152344 216.453125 401.8125 C 217.046875 398.6875 219.835938 397.714844 222.375 397.6875 L 222.574219 397.6875 C 223.871094 397.703125 225.53125 398.058594 226.542969 399.027344 C 227.851563 400.253906 227.726563 401.886719 227.726563 403.667969 L 227.726563 407.867188 C 227.726563 409.132813 228.253906 409.6875 228.742188 410.367188 C 228.914063 410.613281 228.953125 410.902344 228.734375 411.082031 C 228.183594 411.546875 227.207031 412.394531 226.667969 412.871094 Z M 223.945313 406.296875 C 223.945313 407.34375 223.96875 408.21875 223.4375 409.152344 C 223.011719 409.914063 222.328125 410.378906 221.574219 410.378906 C 220.539063 410.378906 219.933594 409.59375 219.933594 408.425781 C 219.933594 406.128906 221.992188 405.710938 223.945313 405.710938 L 223.945313 406.296875 "/>
<path style=" stroke:none;fill-rule:nonzero;fill:rgb(96.875%,47.459412%,7.446289%);fill-opacity:1;" d="M 359.980469 409.980469 L 359.980469 400.285156 L 357.648438 400.285156 L 357.648438 398.316406 L 359.980469 398.316406 L 359.980469 395.148438 L 362.265625 394.359375 L 362.265625 398.316406 L 366.738281 398.316406 L 365.894531 400.285156 L 362.265625 400.285156 L 362.265625 409.582031 C 362.265625 410.488281 362.667969 411.203125 363.621094 411.203125 C 364.675781 411.203125 365.476563 410.699219 366.257813 410.148438 L 367.007813 411.796875 C 365.65625 412.617188 364.773438 413.21875 363.039063 413.21875 C 360.78125 413.21875 359.980469 411.800781 359.980469 409.980469 "/>
<path style=" stroke:none;fill-rule:nonzero;fill:rgb(96.875%,47.459412%,7.446289%);fill-opacity:1;" d="M 307.425781 412.910156 L 307.425781 398.328125 L 309.273438 398.328125 L 309.605469 399.984375 C 311.890625 397.773438 313.875 397.574219 315.234375 398.402344 L 314.28125 400.601563 C 312.824219 400.058594 311.351563 400.476563 309.683594 402.105469 L 309.683594 412.910156 L 307.425781 412.910156 "/>
<path style=" stroke:none;fill-rule:nonzero;fill:rgb(96.875%,47.459412%,7.446289%);fill-opacity:1;" d="M 330.125 412.316406 L 330.125 391.074219 L 332.410156 391.074219 L 332.410156 398.65625 C 338.113281 396.324219 342.539063 400.050781 342.066406 405.851563 C 341.734375 410.066406 338.976563 413.058594 334.328125 413.238281 C 332.886719 413.238281 331.050781 412.953125 330.125 412.316406 Z M 332.410156 400.816406 L 332.410156 410.878906 C 337.113281 412.382813 339.566406 408.925781 339.8125 405.785156 C 340.097656 400.726563 336.398438 398.90625 332.410156 400.816406 "/>
<path style=" stroke:none;fill-rule:nonzero;fill:rgb(96.875%,47.459412%,7.446289%);fill-opacity:1;" d="M 371.253906 398.367188 L 371.253906 412.914063 L 369.023438 412.914063 L 369.023438 398.367188 C 369.761719 398.433594 370.53125 398.433594 371.253906 398.367188 "/>
<path style=" stroke:none;fill-rule:nonzero;fill:rgb(96.875%,47.459412%,7.446289%);fill-opacity:1;" d="M 321.507813 397.976563 C 325.757813 397.976563 328.152344 401.394531 328.152344 405.609375 C 328.152344 409.824219 325.910156 413.238281 321.507813 413.238281 C 317.101563 413.238281 314.859375 409.824219 314.859375 405.609375 C 314.859375 401.394531 317.253906 397.976563 321.507813 397.976563 Z M 325.796875 405.582031 C 325.796875 402.441406 324.480469 399.921875 321.507813 399.921875 C 318.53125 399.921875 317.1875 402.441406 317.1875 405.582031 C 317.1875 408.722656 318.671875 411.242188 321.53125 411.242188 C 324.390625 411.242188 325.796875 408.722656 325.796875 405.582031 "/>
<path style=" stroke:none;fill-rule:nonzero;fill:rgb(96.875%,47.459412%,7.446289%);fill-opacity:1;" d="M 350.226563 397.976563 C 354.480469 397.976563 356.875 401.394531 356.875 405.609375 C 356.875 409.824219 354.632813 413.238281 350.226563 413.238281 C 345.820313 413.238281 343.578125 409.824219 343.578125 405.609375 C 343.578125 401.394531 345.972656 397.976563 350.226563 397.976563 Z M 354.519531 405.582031 C 354.519531 402.441406 353.199219 399.921875 350.226563 399.921875 C 347.253906 399.921875 345.910156 402.441406 345.910156 405.582031 C 345.910156 408.722656 347.390625 411.242188 350.253906 411.242188 C 353.113281 411.242188 354.519531 408.722656 354.519531 405.582031 "/>
<path style=" stroke:none;fill-rule:nonzero;fill:rgb(96.875%,47.459412%,7.446289%);fill-opacity:1;" d="M 370.347656 386.675781 C 370.734375 386.675781 371.585938 386.839844 371.578125 386.839844 C 372.902344 387.035156 374.175781 386.773438 375.148438 385.800781 C 375.859375 385.09375 376.347656 384.230469 376.351563 383.300781 C 376.351563 383.097656 376.328125 382.914063 376.296875 382.742188 C 376.074219 382.1875 375.953125 381.582031 375.953125 380.949219 C 375.953125 380.269531 376.09375 379.625 376.34375 379.039063 C 376.667969 377.921875 376.28125 377.152344 375.570313 376.257813 C 374.917969 375.605469 373.964844 375.273438 372.960938 375.363281 C 372.613281 375.46875 372.246094 375.523438 371.867188 375.523438 C 369.808594 375.523438 368.136719 373.855469 368.136719 371.796875 C 368.136719 369.734375 369.808594 368.0625 371.867188 368.0625 C 373.925781 368.0625 375.597656 369.734375 375.597656 371.796875 C 375.597656 372.214844 375.527344 372.617188 375.398438 372.996094 C 375.210938 374.375 375.558594 374.851563 376.078125 375.636719 C 376.777344 376.332031 377.679688 376.917969 378.703125 376.574219 C 379.339844 376.269531 380.050781 376.097656 380.800781 376.097656 C 383.480469 376.097656 385.648438 378.269531 385.648438 380.949219 C 385.648438 383.625 383.480469 385.796875 380.800781 385.796875 C 380.257813 385.796875 379.734375 385.707031 379.246094 385.539063 C 379.472656 385.617188 378.621094 385.433594 378.566406 385.429688 C 377.402344 385.304688 376.730469 385.691406 375.832031 386.589844 C 375 387.421875 374.773438 388.316406 374.8125 389.625 C 374.828125 390.234375 375.015625 390.6875 375.015625 391.339844 C 375.015625 393.917969 372.925781 396.007813 370.347656 396.007813 C 367.773438 396.007813 365.683594 393.917969 365.683594 391.339844 C 365.683594 388.765625 367.773438 386.675781 370.347656 386.675781 Z M 371.863281 373.515625 C 372.816406 373.515625 373.589844 372.742188 373.589844 371.789063 C 373.589844 370.835938 372.816406 370.058594 371.863281 370.058594 C 370.90625 370.058594 370.132813 370.835938 370.132813 371.789063 C 370.132813 372.742188 370.90625 373.515625 371.863281 373.515625 Z M 380.769531 377.8125 C 379.046875 377.8125 377.652344 379.210938 377.652344 380.933594 C 377.652344 382.65625 379.046875 384.054688 380.769531 384.054688 C 382.492188 384.054688 383.890625 382.65625 383.890625 380.933594 C 383.890625 379.210938 382.492188 377.8125 380.769531 377.8125 Z M 378.605469 380.933594 C 378.605469 379.738281 379.574219 378.765625 380.769531 378.765625 C 381.96875 378.765625 382.9375 379.738281 382.9375 380.933594 C 382.9375 382.128906 381.96875 383.101563 380.769531 383.101563 C 379.574219 383.101563 378.605469 382.128906 378.605469 380.933594 "/>
<path style=" stroke:none;fill-rule:nonzero;fill:rgb(96.875%,47.459412%,7.446289%);fill-opacity:1;" d="M 380.957031 397.976563 C 382.488281 397.976563 383.851563 398.253906 384.921875 398.921875 L 384.921875 401.039063 C 383.730469 400.320313 382.59375 399.960938 380.925781 399.960938 C 378.15625 399.960938 376.289063 402.421875 376.289063 405.5625 C 376.289063 408.765625 377.996094 411.203125 380.859375 411.203125 C 382.476563 411.203125 383.539063 410.925781 384.6875 410.105469 L 385.421875 411.78125 C 384.128906 412.683594 382.382813 413.21875 380.730469 413.21875 C 376.324219 413.21875 374 409.804688 374 405.648438 C 374 401.761719 376.480469 397.976563 380.957031 397.976563 "/>
<path style=" stroke:none;fill-rule:nonzero;fill:rgb(96.875%,47.459412%,7.446289%);fill-opacity:1;" d="M 390.789063 411.347656 C 389.453125 411.371094 388.339844 411.117188 387.019531 410.339844 L 386.140625 412.085938 C 387.488281 412.953125 388.765625 413.222656 390.925781 413.222656 C 392.613281 413.222656 394.148438 412.585938 395.039063 411.609375 C 395.710938 410.871094 396 409.933594 396 408.960938 C 396 406.820313 394.785156 405.785156 392.835938 404.820313 L 390.949219 403.910156 C 389.960938 403.417969 389.257813 402.804688 389.257813 401.5625 C 389.257813 400.730469 390.050781 399.894531 391.742188 399.894531 C 392.789063 399.867188 394.296875 400.101563 395.542969 400.785156 L 395.542969 398.753906 C 394.535156 398.230469 393.285156 397.960938 391.667969 397.980469 C 388.179688 397.980469 386.992188 400.109375 386.992188 401.792969 C 386.992188 404.066406 388.195313 405.015625 389.714844 405.851563 L 391.722656 406.78125 C 392.929688 407.476563 393.605469 408.125 393.605469 409.144531 C 393.605469 410.660156 392.246094 411.347656 390.789063 411.347656 "/>
</g>
</svg>
